<svg width="34" height="34" viewBox="0 0 34 34" fill="none" xmlns="http://www.w3.org/2000/svg">
<path d="M26.7141 4.25H7.28592C6.48097 4.25075 5.70921 4.57085 5.14003 5.14003C4.57085 5.70921 4.25075 6.48097 4.25 7.28592V26.7141C4.25 28.39 5.61142 29.75 7.28592 29.75H26.7141C27.519 29.7492 28.2908 29.4292 28.86 28.86C29.4292 28.2908 29.7492 27.519 29.75 26.7141V7.28592C29.7492 6.48097 29.4292 5.70921 28.86 5.14003C28.2908 4.57085 27.519 4.25075 26.7141 4.25ZM24.2887 15.3751C23.3952 15.4618 22.4961 15.2788 21.7076 14.8495C21.0425 14.4909 20.4776 13.9718 20.0642 13.3393V20.3433C20.0642 21.3671 19.7607 22.368 19.1919 23.2192C18.6231 24.0705 17.8146 24.734 16.8687 25.1258C15.9228 25.5176 14.882 25.6201 13.8779 25.4204C12.8737 25.2206 11.9514 24.7276 11.2274 24.0037C10.5035 23.2797 10.0105 22.3574 9.81071 21.3532C9.61098 20.3491 9.71349 19.3083 10.1053 18.3624C10.4971 17.4165 11.1606 16.608 12.0118 16.0392C12.8631 15.4704 13.8639 15.1668 14.8877 15.1668C14.9954 15.1668 15.1003 15.1767 15.2065 15.1824V17.7338C15.1003 17.7211 14.9968 17.7012 14.8877 17.7012C14.187 17.7012 13.515 17.9796 13.0195 18.4751C12.524 18.9706 12.2457 19.6426 12.2457 20.3433C12.2457 21.0441 12.524 21.7161 13.0195 22.2116C13.515 22.7071 14.187 22.9854 14.8877 22.9854C16.3469 22.9854 17.6361 21.8365 17.6361 20.3773L17.6616 8.48017H20.1025C20.2142 9.54044 20.6949 10.5278 21.4606 11.2696C22.2263 12.0115 23.2283 12.4608 24.2916 12.5389V15.3751" fill="white"/>
</svg>
