<svg width="93" height="100" viewBox="0 0 93 100" fill="none" xmlns="http://www.w3.org/2000/svg">
<g clip-path="url(#clip0_68_41)">
<path d="M81.8578 31.3438V6.25C81.8578 5.4212 81.5558 4.62634 81.0182 4.04029C80.4806 3.45424 79.7515 3.125 78.9913 3.125H14.0087C13.2485 3.125 12.5194 3.45424 11.9818 4.04029C11.4442 4.62634 11.1422 5.4212 11.1422 6.25V31.3438C9.02724 31.6639 7.08953 32.8063 5.68585 34.5605C4.28217 36.3147 3.50703 38.5627 3.50314 40.8906V88.4062C3.51069 90.6498 4.33154 92.799 5.7867 94.3855C7.24187 95.9719 9.21333 96.8668 11.2712 96.875H80.6539C82.998 96.8709 85.2451 95.8538 86.9026 94.0468C88.5602 92.2397 89.4931 89.79 89.4969 87.2344V40.8906C89.493 38.5627 88.7178 36.3147 87.3142 34.5605C85.9105 32.8063 83.9728 31.6639 81.8578 31.3438ZM9.23605 41.3906L35.5501 67.1875L9.23605 87.6875V41.3906ZM39.9215 71.4531L44.5795 76.0312C45.1062 76.5495 45.7905 76.8364 46.5 76.8364C47.2095 76.8364 47.8938 76.5495 48.4205 76.0312L53.0785 71.4531L77.6871 90.625H15.3129L39.9215 71.4531ZM57.4499 67.1875L83.764 41.3906V87.2344C83.7718 87.3697 83.7718 87.5053 83.764 87.6406L57.4499 67.1875Z" fill="#7B3C1C"/>
<path d="M43.6767 14.96C46.29 16.6133 48.1567 19.0667 49.2767 22.32C50.45 25.52 50.77 29.2533 50.2367 33.52C49.7567 36.9867 48.77 40.4267 47.2767 43.84C45.8367 47.2 43.9167 50.2133 41.5167 52.88C39.1167 55.4933 36.53 57.2 33.7567 58C33.17 58.16 32.61 58.24 32.0767 58.24C30.9033 58.24 29.9167 57.84 29.1167 57.04C26.3967 54.2133 26.8233 47.0667 30.3967 35.6C31.3033 32.72 32.3967 29.6533 33.6767 26.4C35.01 23.1467 36.6633 19.84 38.6367 16.48C40.6633 13.12 42.45 11.3067 43.9967 11.04C44.4233 10.9333 44.8233 11.0133 45.1967 11.28C45.57 11.5467 45.81 11.8933 45.9167 12.32C45.97 12.5333 45.97 12.7467 45.9167 12.96C45.8633 13.1733 45.7833 13.3867 45.6767 13.6C45.57 13.76 45.41 13.8933 45.1967 14C45.0367 14.1067 44.85 14.1867 44.6367 14.24C44.37 14.2933 44.05 14.5333 43.6767 14.96ZM46.9567 33.12C47.4367 29.44 47.2233 26.2667 46.3167 23.6C45.41 20.88 43.89 18.88 41.7567 17.6C40.1033 20.2133 38.37 23.7067 36.5567 28.08C34.7967 32.4 33.3567 36.8267 32.2367 41.36C31.5433 43.9733 31.09 46.2933 30.8767 48.32C30.6633 50.2933 30.61 51.7867 30.7167 52.8C30.8767 53.76 31.1433 54.4 31.5167 54.72C31.7833 54.9867 32.2367 55.0133 32.8767 54.8C36.0767 53.8933 39.0367 51.3333 41.7567 47.12C44.53 42.8533 46.2633 38.1867 46.9567 33.12ZM64.6898 10.96C65.4365 11.28 65.9165 11.8933 66.1298 12.8C66.3965 13.6533 66.3431 15.3333 65.9698 17.84C65.6498 20.2933 65.0365 23.3867 64.1298 27.12C63.2765 30.8533 61.9698 36.0533 60.2098 42.72C59.5165 45.4933 58.9565 47.6267 58.5298 49.12C58.1565 50.56 57.7298 52.2933 57.2498 54.32C56.7698 56.2933 56.3965 57.9467 56.1298 59.28C55.9698 60.1333 55.4365 60.56 54.5298 60.56C54.4231 60.56 54.3165 60.5333 54.2098 60.48C53.7298 60.4267 53.3565 60.1867 53.0898 59.76C52.8765 59.3867 52.8231 58.9867 52.9298 58.56C53.5165 55.68 54.8765 50.1333 57.0098 41.92C60.8498 27.1467 62.8498 18.1867 63.0098 15.04C61.7831 16.5333 60.1031 19.0933 57.9698 22.72C57.7565 23.1467 57.4098 23.4133 56.9298 23.52C56.5031 23.6267 56.0765 23.5733 55.6498 23.36C55.2765 23.0933 55.0365 22.7467 54.9298 22.32C54.8231 21.8933 54.8765 21.4667 55.0898 21.04C57.7565 16.5067 59.7565 13.6 61.0898 12.32C62.4231 10.9867 63.6231 10.5333 64.6898 10.96Z" fill="white"/>
</g>
<defs>
<clipPath id="clip0_68_41">
<rect width="91.7266" height="100" fill="white" transform="translate(0.636681)"/>
</clipPath>
</defs>
</svg>
