<svg width="93" height="100" viewBox="0 0 93 100" fill="none" xmlns="http://www.w3.org/2000/svg">
<g clip-path="url(#clip0_68_64)">
<path d="M81.8579 31.3438V6.25C81.8579 5.4212 81.5559 4.62634 81.0184 4.04029C80.4808 3.45424 79.7517 3.125 78.9915 3.125H14.0089C13.2486 3.125 12.5195 3.45424 11.982 4.04029C11.4444 4.62634 11.1424 5.4212 11.1424 6.25V31.3438C9.0274 31.6639 7.08969 32.8063 5.68601 34.5605C4.28233 36.3147 3.50719 38.5627 3.5033 40.8906V88.4062C3.51085 90.6498 4.3317 92.799 5.78686 94.3855C7.24203 95.9719 9.21349 96.8668 11.2714 96.875H80.654C82.9982 96.8709 85.2452 95.8538 86.9028 94.0468C88.5603 92.2397 89.4932 89.79 89.497 87.2344V40.8906C89.4931 38.5627 88.718 36.3147 87.3143 34.5605C85.9106 32.8063 83.9729 31.6639 81.8579 31.3438ZM9.23621 41.3906L35.5503 67.1875L9.23621 87.6875V41.3906ZM39.9216 71.4531L44.5796 76.0312C45.1064 76.5495 45.7907 76.8364 46.5002 76.8364C47.2097 76.8364 47.894 76.5495 48.4207 76.0312L53.0787 71.4531L77.6872 90.625H15.3131L39.9216 71.4531ZM57.45 67.1875L83.7641 41.3906V87.2344C83.772 87.3697 83.772 87.5053 83.7641 87.6406L57.45 67.1875Z" fill="#7B3C1C"/>
<path d="M39.6768 14.96C42.2902 16.6133 44.1568 19.0667 45.2768 22.32C46.4502 25.52 46.7702 29.2533 46.2368 33.52C45.7568 36.9867 44.7702 40.4267 43.2768 43.84C41.8368 47.2 39.9168 50.2133 37.5168 52.88C35.1168 55.4933 32.5302 57.2 29.7568 58C29.1702 58.16 28.6102 58.24 28.0768 58.24C26.9035 58.24 25.9168 57.84 25.1168 57.04C22.3968 54.2133 22.8235 47.0667 26.3968 35.6C27.3035 32.72 28.3968 29.6533 29.6768 26.4C31.0102 23.1467 32.6635 19.84 34.6368 16.48C36.6635 13.12 38.4502 11.3067 39.9968 11.04C40.4235 10.9333 40.8235 11.0133 41.1968 11.28C41.5702 11.5467 41.8102 11.8933 41.9168 12.32C41.9702 12.5333 41.9702 12.7467 41.9168 12.96C41.8635 13.1733 41.7835 13.3867 41.6768 13.6C41.5702 13.76 41.4102 13.8933 41.1968 14C41.0368 14.1067 40.8502 14.1867 40.6368 14.24C40.3702 14.2933 40.0502 14.5333 39.6768 14.96ZM42.9568 33.12C43.4368 29.44 43.2235 26.2667 42.3168 23.6C41.4102 20.88 39.8902 18.88 37.7568 17.6C36.1035 20.2133 34.3702 23.7067 32.5568 28.08C30.7968 32.4 29.3568 36.8267 28.2368 41.36C27.5435 43.9733 27.0902 46.2933 26.8768 48.32C26.6635 50.2933 26.6102 51.7867 26.7168 52.8C26.8768 53.76 27.1435 54.4 27.5168 54.72C27.7835 54.9867 28.2368 55.0133 28.8768 54.8C32.0768 53.8933 35.0368 51.3333 37.7568 47.12C40.5302 42.8533 42.2635 38.1867 42.9568 33.12ZM67.65 37.44C67.97 39.4667 67.7833 41.5467 67.09 43.68C66.45 45.8133 65.33 47.92 63.73 50C62.13 52.0267 59.8366 53.8933 56.85 55.6C53.9166 57.3067 50.5033 58.64 46.61 59.6C46.45 59.6533 46.3166 59.68 46.21 59.68C45.3566 59.68 44.8233 59.2533 44.61 58.4C44.5033 57.9733 44.5833 57.5467 44.85 57.12C45.0633 56.7467 45.3833 56.5067 45.81 56.4C49.2233 55.5467 52.21 54.4 54.77 52.96C57.3833 51.52 59.41 49.9733 60.85 48.32C62.29 46.6133 63.3033 44.88 63.89 43.12C64.4766 41.36 64.6366 39.6533 64.37 38C63.9966 35.6533 62.8766 33.84 61.01 32.56C59.1966 31.28 56.93 30.7467 54.21 30.96C53.41 31.0133 52.85 30.6667 52.53 29.92C52.2633 29.1733 52.45 28.5333 53.09 28C55.1166 26.4533 56.85 25.0133 58.29 23.68C59.73 22.2933 60.77 21.2 61.41 20.4C62.05 19.6 62.53 18.9067 62.85 18.32C63.17 17.68 63.33 17.28 63.33 17.12C63.3833 16.9067 63.41 16.7733 63.41 16.72C62.9833 16.3467 61.9966 16.4267 60.45 16.96C59.33 17.3333 58.3166 17.92 57.41 18.72C56.5566 19.4667 56.0766 20.32 55.97 21.28C55.8633 21.7067 55.6233 22.08 55.25 22.4C54.93 22.6667 54.53 22.7733 54.05 22.72C53.6233 22.6133 53.2766 22.4 53.01 22.08C52.7433 21.7067 52.6366 21.28 52.69 20.8C52.9566 18.88 53.97 17.2267 55.73 15.84C57.49 14.4533 59.3833 13.6267 61.41 13.36C64.0233 13.04 65.7033 13.7333 66.45 15.44C67.57 18.2133 64.8766 22.3733 58.37 27.92C60.8766 28.4533 62.9566 29.5733 64.61 31.28C66.2633 32.9333 67.2766 34.9867 67.65 37.44Z" fill="white"/>
</g>
<defs>
<clipPath id="clip0_68_64">
<rect width="91.7266" height="100" fill="white" transform="translate(0.636841)"/>
</clipPath>
</defs>
</svg>
