<svg width="93" height="100" viewBox="0 0 93 100" fill="none" xmlns="http://www.w3.org/2000/svg">
<g clip-path="url(#clip0_68_60)">
<path d="M81.8579 31.3438V6.25C81.8579 5.4212 81.5559 4.62634 81.0184 4.04029C80.4808 3.45424 79.7517 3.125 78.9915 3.125H14.0089C13.2486 3.125 12.5195 3.45424 11.982 4.04029C11.4444 4.62634 11.1424 5.4212 11.1424 6.25V31.3438C9.0274 31.6639 7.08969 32.8063 5.68601 34.5605C4.28233 36.3147 3.50719 38.5627 3.5033 40.8906V88.4062C3.51085 90.6498 4.3317 92.799 5.78686 94.3855C7.24203 95.9719 9.21349 96.8668 11.2714 96.875H80.654C82.9982 96.8709 85.2452 95.8538 86.9028 94.0468C88.5603 92.2397 89.4932 89.79 89.497 87.2344V40.8906C89.4931 38.5627 88.718 36.3147 87.3143 34.5605C85.9106 32.8063 83.9729 31.6639 81.8579 31.3438ZM9.23621 41.3906L35.5503 67.1875L9.23621 87.6875V41.3906ZM39.9216 71.4531L44.5796 76.0312C45.1064 76.5495 45.7907 76.8364 46.5002 76.8364C47.2097 76.8364 47.894 76.5495 48.4207 76.0312L53.0787 71.4531L77.6872 90.625H15.3131L39.9216 71.4531ZM57.45 67.1875L83.7641 41.3906V87.2344C83.772 87.3697 83.772 87.5053 83.7641 87.6406L57.45 67.1875Z" fill="#7B3C1C"/>
<path d="M39.6768 14.96C42.2902 16.6133 44.1568 19.0667 45.2768 22.32C46.4502 25.52 46.7702 29.2533 46.2368 33.52C45.7568 36.9867 44.7702 40.4267 43.2768 43.84C41.8368 47.2 39.9168 50.2133 37.5168 52.88C35.1168 55.4933 32.5302 57.2 29.7568 58C29.1702 58.16 28.6102 58.24 28.0768 58.24C26.9035 58.24 25.9168 57.84 25.1168 57.04C22.3968 54.2133 22.8235 47.0667 26.3968 35.6C27.3035 32.72 28.3968 29.6533 29.6768 26.4C31.0102 23.1467 32.6635 19.84 34.6368 16.48C36.6635 13.12 38.4502 11.3067 39.9968 11.04C40.4235 10.9333 40.8235 11.0133 41.1968 11.28C41.5702 11.5467 41.8102 11.8933 41.9168 12.32C41.9702 12.5333 41.9702 12.7467 41.9168 12.96C41.8635 13.1733 41.7835 13.3867 41.6768 13.6C41.5702 13.76 41.4102 13.8933 41.1968 14C41.0368 14.1067 40.8502 14.1867 40.6368 14.24C40.3702 14.2933 40.0502 14.5333 39.6768 14.96ZM42.9568 33.12C43.4368 29.44 43.2235 26.2667 42.3168 23.6C41.4102 20.88 39.8902 18.88 37.7568 17.6C36.1035 20.2133 34.3702 23.7067 32.5568 28.08C30.7968 32.4 29.3568 36.8267 28.2368 41.36C27.5435 43.9733 27.0902 46.2933 26.8768 48.32C26.6635 50.2933 26.6102 51.7867 26.7168 52.8C26.8768 53.76 27.1435 54.4 27.5168 54.72C27.7835 54.9867 28.2368 55.0133 28.8768 54.8C32.0768 53.8933 35.0368 51.3333 37.7568 47.12C40.5302 42.8533 42.2635 38.1867 42.9568 33.12ZM57.81 39.28C56.37 41.8933 55.2766 43.8933 54.53 45.28C53.8366 46.6133 53.0633 48.24 52.21 50.16C51.41 52.0267 50.9033 53.6 50.69 54.88C50.6366 55.1467 50.61 55.3867 50.61 55.6C50.61 55.8133 50.61 55.92 50.61 55.92C51.4633 56.1333 53.2766 55.36 56.05 53.6C58.8233 51.7867 60.9033 49.9467 62.29 48.08C62.5566 47.7067 62.9033 47.4933 63.33 47.44C63.81 47.3333 64.2366 47.4133 64.61 47.68C64.9833 47.9467 65.1966 48.32 65.25 48.8C65.3033 49.2267 65.1966 49.6267 64.93 50C63.5433 51.9733 61.33 54 58.29 56.08C55.3033 58.16 52.7966 59.2 50.77 59.2C50.1833 59.2 49.6766 59.12 49.25 58.96C47.5966 58.2133 46.9833 56.6667 47.41 54.32C47.6766 52.8267 48.2366 51.0667 49.09 49.04C49.9433 47.0133 50.7433 45.3067 51.49 43.92C52.29 42.48 53.4366 40.4 54.93 37.68C56.5833 34.7467 57.8366 32.4533 58.69 30.8C59.5433 29.1467 60.45 27.1467 61.41 24.8C62.4233 22.4 63.0633 20.32 63.33 18.56C63.49 17.4933 63.41 16.88 63.09 16.72C62.7166 16.4533 61.89 16.5333 60.61 16.96C59.33 17.3867 57.9966 18.1067 56.61 19.12C56.2366 19.3867 55.81 19.4933 55.33 19.44C54.9033 19.3333 54.5566 19.12 54.29 18.8C54.0233 18.4267 53.9166 18.0267 53.97 17.6C54.0766 17.12 54.3166 16.7467 54.69 16.48C54.9566 16.2667 55.2766 16.0267 55.65 15.76C56.0233 15.4933 56.6366 15.1467 57.49 14.72C58.3433 14.2933 59.1433 13.9467 59.89 13.68C60.69 13.4133 61.5433 13.28 62.45 13.28C63.3566 13.28 64.1566 13.4667 64.85 13.84C66.3966 14.8 66.9833 16.56 66.61 19.12C66.29 20.9867 65.6233 23.2 64.61 25.76C63.5966 28.32 62.6366 30.4533 61.73 32.16C60.8233 33.8133 59.5166 36.1867 57.81 39.28Z" fill="white"/>
</g>
<defs>
<clipPath id="clip0_68_60">
<rect width="91.7266" height="100" fill="white" transform="translate(0.636841)"/>
</clipPath>
</defs>
</svg>
